<?xml version="1.0" encoding="UTF-8" standalone="no"?>
<!DOCTYPE svg PUBLIC "-//W3C//DTD SVG 1.1//EN" "http://www.w3.org/Graphics/SVG/1.1/DTD/svg11.dtd">
<svg version="1.1" xmlns="http://www.w3.org/2000/svg" xmlns:xlink="http://www.w3.org/1999/xlink" preserveAspectRatio="xMidYMid meet" viewBox="0 0 640 640" width="640" height="640"><defs><path d="M90.06 354.67L90.06 311.05L103.63 311.05L103.63 300.23L65.58 300.23L65.58 311.05L79.16 311.05L79.16 354.67L79.16 354.67L90.06 354.67Z" id="a9esDaeQCM"></path><path d="M150 354.67L150 300.15L139.1 300.15L139.1 321.96L122.77 321.96L122.77 300.15L111.87 300.15L111.87 354.67L122.77 354.67L122.77 332.86L139.1 332.86L139.1 354.67L139.1 354.67L150 354.67Z" id="d2n539cTcF"></path><path d="M170.05 343.76L170.05 332.86L187.52 332.86L187.52 321.96L170.05 321.96L170.05 311.05L189.58 311.05L189.58 300.15L159.13 300.15L159.13 354.67L190.5 354.67L190.5 343.76L190.5 343.76L170.05 343.76Z" id="f5KVpYCC14"></path><path d="M226.41 299.41L222.9 299.41L222.9 354.78L233.95 354.78L233.95 324.34L247.91 338.99L261.87 324.34L261.79 354.78L272.85 354.78L272.85 299.41L269.41 299.41L247.91 323.35L247.91 323.35L226.41 299.41Z" id="a39H7KeZNE"></path><path d="M315.86 299.86L318.62 300.5L321.19 301.37L323.58 302.44L325.79 303.72L327.81 305.18L329.65 306.8L331.3 308.57L332.77 310.47L334.06 312.5L335.16 314.62L336.08 316.83L336.82 319.11L337.37 321.45L337.73 323.83L337.92 326.23L337.92 328.64L337.73 331.04L337.36 333.41L336.81 335.75L336.07 338.03L335.15 340.24L334.05 342.37L332.76 344.39L331.29 346.29L329.64 348.07L327.8 349.69L325.78 351.14L323.57 352.42L321.18 353.5L318.61 354.36L315.85 355L312.91 355.4L309.79 355.53L306.66 355.4L303.72 355L300.97 354.36L298.39 353.5L296 352.42L293.8 351.14L291.78 349.69L289.94 348.07L288.29 346.29L286.82 344.39L285.53 342.37L284.43 340.24L283.51 338.03L282.77 335.75L282.22 333.41L281.85 331.04L281.67 328.64L281.67 326.23L281.85 323.83L282.22 321.45L282.77 319.11L283.51 316.83L284.43 314.62L285.53 312.5L286.82 310.47L288.29 308.57L289.94 306.8L291.78 305.18L293.8 303.72L296 302.44L298.39 301.37L300.97 300.5L303.72 299.86L306.66 299.47L309.79 299.33L312.91 299.47L315.86 299.86ZM303.9 311.49L301.45 312.6L299.32 314.05L297.52 315.82L296.05 317.83L294.9 320.04L294.09 322.41L293.6 324.88L293.43 327.4L293.6 329.92L294.09 332.39L294.9 334.76L296.05 336.97L297.52 338.99L299.32 340.75L301.45 342.2L303.9 343.31L306.68 344.01L309.79 344.25L312.9 344.01L315.68 343.31L318.14 342.2L320.27 340.75L322.07 338.99L323.54 336.97L324.69 334.76L325.5 332.39L325.99 329.92L326.16 327.4L325.99 324.88L325.5 322.41L324.68 320.04L323.53 317.83L322.06 315.82L320.26 314.05L318.13 312.6L315.68 311.49L312.9 310.79L309.79 310.55L306.68 310.79L303.9 311.49Z" id="dPMyRQaiC"></path><path d="M410.77 300.24C410.77 300.24 410.77 300.24 410.77 300.24C410.77 332.95 410.77 351.13 410.77 354.76C410.77 354.76 410.77 354.76 410.77 354.76C404.22 354.76 400.59 354.76 399.86 354.76C399.86 354.76 399.86 354.76 399.86 354.76C399.86 322.05 399.86 303.88 399.86 300.24C399.86 300.24 399.86 300.24 399.86 300.24C406.4 300.24 410.04 300.24 410.77 300.24Z" id="a9aNfOvPq"></path><path d="M430.8 332.97L448.29 332.97L448.29 322.07L430.8 322.07L430.8 311.16L450.34 311.16L450.34 300.24L419.89 300.24L419.89 354.78L451.26 354.78L451.26 343.87L430.8 343.87L430.8 343.87L430.8 332.97Z" id="b3LMUsypW6"></path><path d="M504.95 301.41L507.68 302.07L510.23 302.96L512.58 304.06L514.75 305.37L516.73 306.85L518.52 308.51L520.12 310.31L521.53 312.25L522.75 314.3L523.79 316.45L524.64 318.69L525.3 320.99L525.77 323.34L526.05 325.73L526.15 328.13L526.05 330.53L525.77 332.92L525.3 335.27L524.64 337.57L523.79 339.81L522.75 341.96L521.53 344.02L520.12 345.95L518.52 347.76L516.73 349.41L514.75 350.9L512.58 352.2L510.23 353.3L507.68 354.19L504.95 354.85L502.03 355.25L498.92 355.39L482.68 355.39L482.68 300.87L498.92 300.87L502.03 301.01L504.95 301.41ZM493.58 344.49L498.92 344.49L502.27 344.2L505.22 343.36L507.78 342.06L509.94 340.36L511.71 338.32L513.09 336.01L514.07 333.49L514.66 330.85L514.86 328.13L514.66 325.42L514.07 322.77L513.09 320.26L511.71 317.94L509.94 315.9L507.78 314.2L505.22 312.9L502.27 312.07L498.92 311.77L493.58 311.77L493.58 344.49Z" id="a5UKk1bMmY"></path><path d="M558.05 300.86L558.86 300.95L559.64 301.07L560.41 301.23L561.15 301.42L561.87 301.64L562.57 301.89L563.25 302.17L563.91 302.48L564.54 302.82L565.15 303.2L565.74 303.59L566.3 304.02L566.84 304.47L567.35 304.95L567.84 305.46L568.3 305.99L568.74 306.54L569.14 307.12L569.53 307.72L569.88 308.35L570.21 308.99L570.51 309.66L570.78 310.34L571.02 311.05L571.23 311.78L571.41 312.52L571.56 313.28L571.69 314.06L571.78 314.86L571.84 315.67L571.86 316.5L571.86 317.34L571.84 317.7L571.82 318.06L571.79 318.43L571.75 318.79L571.71 319.16L571.66 319.52L571.6 319.88L571.53 320.24L571.46 320.6L571.37 320.96L571.28 321.31L571.19 321.66L571.08 322.01L570.97 322.36L570.85 322.7L570.71 323.04L570.58 323.37L570.43 323.7L570.27 324.02L570.11 324.34L569.93 324.66L569.75 324.96L569.56 325.26L569.36 325.56L569.15 325.85L568.93 326.13L568.7 326.4L568.46 326.67L568.22 326.93L567.96 327.18L567.69 327.42L567.41 327.65L567.13 327.87L566.83 328.08L567.14 328.31L567.44 328.54L567.73 328.78L568.01 329.03L568.29 329.29L568.56 329.55L568.82 329.82L569.07 330.1L569.31 330.38L569.55 330.67L569.77 330.96L569.99 331.27L570.2 331.57L570.4 331.89L570.59 332.2L570.77 332.53L570.95 332.85L571.11 333.19L571.27 333.52L571.41 333.87L571.55 334.21L571.67 334.56L571.79 334.91L571.89 335.27L571.99 335.63L572.08 335.99L572.15 336.36L572.22 336.73L572.27 337.1L572.32 337.47L572.35 337.85L572.38 338.23L572.39 338.61L572.39 338.99L572.39 339L572.39 339.05L572.38 339.84L572.33 340.61L572.25 341.38L572.12 342.14L571.97 342.88L571.78 343.61L571.56 344.33L571.31 345.03L571.02 345.71L570.71 346.39L570.36 347.04L569.99 347.67L569.59 348.29L569.16 348.89L568.71 349.46L568.23 350.02L567.73 350.55L567.21 351.06L566.66 351.55L566.09 352.01L565.5 352.45L564.89 352.86L564.26 353.24L563.61 353.59L562.94 353.92L562.26 354.21L561.56 354.48L560.85 354.71L560.12 354.91L559.38 355.07L558.63 355.21L557.86 355.3L557.09 355.37L556.3 355.39L534.79 355.39L534.79 300.79L556.38 300.79L557.23 300.81L558.05 300.86ZM545.78 344.47L547.81 344.47L549.61 344.48L551.16 344.48L552.48 344.48L553.56 344.48L554.39 344.48L554.99 344.48L555.35 344.49L555.47 344.49L555.49 344.49L555.52 344.49L555.55 344.49L555.58 344.49L555.6 344.49L555.61 344.49L556.59 344.38L557.5 344.12L558.34 343.71L559.09 343.16L559.73 342.5L560.25 341.73L560.64 340.88L560.88 339.96L560.95 338.99L560.95 338.97L560.95 338.95L560.95 338.9L560.95 338.88L560.95 338.86L560.95 338.84L560.95 338.82L560.95 338.8L560.84 337.84L560.57 336.94L560.16 336.11L559.61 335.38L558.95 334.75L558.19 334.23L557.35 333.86L556.44 333.63L555.47 333.57L545.78 333.57L545.78 344.47ZM545.78 322.68L555.47 322.68L556.35 322.54L557.18 322.27L557.95 321.87L558.64 321.37L559.24 320.77L559.75 320.08L560.14 319.31L560.42 318.48L560.55 317.6L560.54 316.6L560.36 315.65L560.01 314.76L559.53 313.95L558.92 313.24L558.19 312.64L557.36 312.17L556.45 311.84L555.47 311.68L545.78 311.68L545.78 322.68Z" id="g2LqqJbuDr"></path><path d="M351.94 300.24L339.36 300.24L365.08 355.92L367.51 355.92L393.23 300.24L380.65 300.24L366.29 329.69L366.29 329.69L351.94 300.24Z" id="bhGvD5ILM"></path><path d="M601.52 423.45C624.46 423.45 639.98 407.93 639.98 384.99C639.98 369.71 639.98 247.43 639.98 232.15C639.98 209.21 624.46 193.69 601.52 193.69C545.22 193.69 94.77 193.69 38.46 193.69C15.52 193.69 0 209.21 0 232.15C0 246.43 0 317.83 0 446.35L19.73 423.47L19.73 423.47C19.73 308.68 19.73 244.9 19.73 232.15C19.75 221.81 28.13 213.44 38.46 213.42C94.77 213.42 545.22 213.42 601.52 213.42C611.86 213.44 620.23 221.81 620.25 232.15C620.25 247.43 620.25 369.71 620.25 384.99C620.23 395.33 611.86 403.7 601.52 403.72C565.93 403.72 387.98 403.72 67.67 403.72L47.94 423.45L47.81 423.3C343.12 423.38 527.69 423.43 601.52 423.45Z" id="a14FuwdFQb"></path><path d="M79.21 253.94L80.47 254.86L81.45 256.02L82.15 257.38L82.57 258.87L82.71 260.41L82.57 261.96L82.15 263.45L81.44 264.8L80.46 265.97L79.2 266.88L77.66 267.48L75.84 267.69L71.28 267.69L71.28 276.69L66.57 276.69L66.57 253.14L75.84 253.14L77.67 253.35L79.21 253.94ZM71.28 263.12L75.45 263.12L76.63 260.81L77.02 259.16L76.63 258.17L75.45 257.84L71.28 257.84L71.28 263.12Z" id="a3ayko0SI"></path><path d="M106.4 253.91L108.57 255.26L110.3 256.99L111.59 259.03L112.46 261.29L112.89 263.67L112.89 266.1L112.46 268.48L111.59 270.73L110.3 272.77L108.57 274.51L106.4 275.86L103.8 276.73L100.77 277.04L97.75 276.73L95.15 275.86L92.98 274.51L91.25 272.77L89.95 270.73L89.09 268.48L88.66 266.1L88.66 263.67L89.09 261.29L89.95 259.03L91.25 256.99L92.98 255.26L95.15 253.91L97.75 253.04L100.77 252.73L103.8 253.04L106.4 253.91ZM95.89 259.42L94.49 261.36L93.79 263.66L93.79 266.08L94.49 268.39L95.89 270.33L97.98 271.67L100.77 272.17L103.57 271.67L105.66 270.32L107.06 268.38L107.76 266.08L107.76 263.66L107.07 261.35L105.67 259.41L103.57 258.07L100.77 257.57L97.98 258.07L95.89 259.42Z" id="c2BT6RSuei"></path><path d="M117.9 253.12L123.21 253.12L127.92 265.16L132.54 253.34L132.78 253.34L137.4 265.16L142.11 253.12L147.42 253.12L137.79 277.1L136.93 277.1L132.61 266.64L128.32 277.19L127.5 277.19L117.9 253.12Z" id="b1rfpNJpbn"></path><path d="M153.35 253.14L165.08 253.14L165.08 257.85L158 257.85L158 262.57L164.2 262.57L164.2 267.28L158 267.28L158 271.99L165.49 271.99L165.49 276.71L153.28 276.71L153.35 253.14Z" id="dOhUnlX5h"></path><path d="M184.64 253.51L185.65 253.94L186.54 254.51L187.3 255.2L187.93 256L188.44 256.88L188.82 257.82L189.07 258.81L189.19 259.82L189.19 260.84L189.06 261.85L188.8 262.83L188.41 263.76L187.9 264.62L187.25 265.39L186.48 266.06L185.58 266.6L184.55 267L190.03 276.72L184.69 276.72L179.96 267.7L177.65 267.7L177.65 276.71L172.94 276.71L172.94 253.14L182.24 253.14L183.5 253.23L184.64 253.51ZM177.65 263.12L181.82 263.12L183.58 262.29L184.17 260.48L183.58 258.66L181.82 257.84L177.65 257.84L177.65 263.12Z" id="a8QyHodDr"></path><path d="M196.13 253.14L207.94 253.14L207.94 257.85L200.86 257.85L200.86 262.57L207.06 262.57L207.06 267.28L200.86 267.28L200.86 271.99L208.35 271.99L208.35 276.71L196.14 276.71L196.13 253.14Z" id="bPeMW6cYD"></path><path d="M228.53 254.44L230.69 255.92L232.37 257.8L233.57 260L234.29 262.41L234.53 264.92L234.29 267.43L233.57 269.83L232.37 272.03L230.69 273.92L228.53 275.4L225.88 276.36L222.76 276.71L215.74 276.71L215.74 253.14L222.76 253.14L225.88 253.48L228.53 254.44ZM220.45 271.99L222.76 271.99L225.77 271.39L227.92 269.78L229.21 267.52L229.64 264.92L229.21 262.33L227.92 260.06L225.77 258.46L222.76 257.85L220.45 257.85L220.45 271.99Z" id="ePhsaW12H"></path><path d="M274.53 253.12L280.27 253.12L285.09 261.25L289.91 253.12L295.68 253.12L287.43 266.09L287.43 276.71L282.72 276.71L282.72 266.09L274.53 253.12Z" id="e3ExQxva"></path><path d="M263.98 253.28L264.04 253.28L264.1 253.28L264.16 253.28L264.22 253.29L264.29 253.29L264.35 253.29L264.41 253.3L264.47 253.31L264.53 253.31L265.23 253.42L265.9 253.61L266.54 253.86L267.14 254.17L267.69 254.54L268.21 254.96L268.68 255.43L269.1 255.95L269.46 256.5L269.77 257.09L270.01 257.72L270.19 258.37L270.3 259.04L270.34 259.74L270.3 260.44L270.3 260.81L270.28 261.17L270.24 261.53L270.17 261.88L270.08 262.23L269.97 262.57L269.84 262.9L269.69 263.22L269.52 263.53L269.34 263.84L269.13 264.13L268.9 264.41L268.66 264.67L268.4 264.92L268.12 265.16L268.41 265.38L268.69 265.61L268.95 265.86L269.19 266.13L269.42 266.41L269.63 266.7L269.81 267.01L269.98 267.32L270.13 267.65L270.26 267.99L270.36 268.33L270.45 268.68L270.51 269.03L270.55 269.4L270.57 269.76L270.57 269.79L270.54 270.56L270.42 271.3L270.23 272.01L269.97 272.69L269.64 273.34L269.25 273.94L268.8 274.5L268.29 275.01L267.74 275.47L267.14 275.87L266.5 276.2L265.82 276.48L265.11 276.68L264.37 276.8L263.61 276.85L254.28 276.85L254.28 253.28L263.61 253.28L263.67 253.28L263.73 253.28L263.79 253.28L263.86 253.28L263.92 253.28L263.98 253.28ZM259.02 272.21L260.85 272.23L262.16 272.24L262.94 272.25L263.2 272.26L263.23 272.26L263.27 272.26L263.3 272.26L263.33 272.26L264.23 272.04L264.96 271.52L265.44 270.76L265.59 269.84L265.59 269.82L265.59 269.79L265.59 269.77L265.59 269.75L265.38 268.85L264.87 268.13L264.12 267.66L263.22 267.5L259.02 267.5L259.02 272.21ZM259.02 262.79L263.22 262.79L263.93 262.55L264.52 262.12L264.95 261.53L265.19 260.82L265.15 259.87L264.77 259.04L264.1 258.41L263.22 258.07L259.02 258.07L259.02 262.79Z" id="cs0me1NSU"></path></defs><g><g><g><use xlink:href="#a9esDaeQCM" opacity="1" fill="#ffffff" fill-opacity="1"></use><g><use xlink:href="#a9esDaeQCM" opacity="1" fill-opacity="0" stroke="#000000" stroke-width="1" stroke-opacity="0"></use></g></g><g><use xlink:href="#d2n539cTcF" opacity="1" fill="#ffffff" fill-opacity="1"></use><g><use xlink:href="#d2n539cTcF" opacity="1" fill-opacity="0" stroke="#000000" stroke-width="1" stroke-opacity="0"></use></g></g><g><use xlink:href="#f5KVpYCC14" opacity="1" fill="#ffffff" fill-opacity="1"></use><g><use xlink:href="#f5KVpYCC14" opacity="1" fill-opacity="0" stroke="#000000" stroke-width="1" stroke-opacity="0"></use></g></g><g><use xlink:href="#a39H7KeZNE" opacity="1" fill="#ffffff" fill-opacity="1"></use><g><use xlink:href="#a39H7KeZNE" opacity="1" fill-opacity="0" stroke="#000000" stroke-width="1" stroke-opacity="0"></use></g></g><g><use xlink:href="#dPMyRQaiC" opacity="1" fill="#ffffff" fill-opacity="1"></use><g><use xlink:href="#dPMyRQaiC" opacity="1" fill-opacity="0" stroke="#000000" stroke-width="1" stroke-opacity="0"></use></g></g><g><use xlink:href="#a9aNfOvPq" opacity="1" fill="#ffffff" fill-opacity="1"></use><g><use xlink:href="#a9aNfOvPq" opacity="1" fill-opacity="0" stroke="#000000" stroke-width="1" stroke-opacity="0"></use></g></g><g><use xlink:href="#b3LMUsypW6" opacity="1" fill="#ffffff" fill-opacity="1"></use><g><use xlink:href="#b3LMUsypW6" opacity="1" fill-opacity="0" stroke="#000000" stroke-width="1" stroke-opacity="0"></use></g></g><g><use xlink:href="#a5UKk1bMmY" opacity="1" fill="#ffffff" fill-opacity="1"></use><g><use xlink:href="#a5UKk1bMmY" opacity="1" fill-opacity="0" stroke="#000000" stroke-width="1" stroke-opacity="0"></use></g></g><g><use xlink:href="#g2LqqJbuDr" opacity="1" fill="#ffffff" fill-opacity="1"></use><g><use xlink:href="#g2LqqJbuDr" opacity="1" fill-opacity="0" stroke="#000000" stroke-width="1" stroke-opacity="0"></use></g></g><g><use xlink:href="#bhGvD5ILM" opacity="1" fill="#ffffff" fill-opacity="1"></use><g><use xlink:href="#bhGvD5ILM" opacity="1" fill-opacity="0" stroke="#000000" stroke-width="1" stroke-opacity="0"></use></g></g><g><use xlink:href="#a14FuwdFQb" opacity="1" fill="#ffffff" fill-opacity="1"></use><g><use xlink:href="#a14FuwdFQb" opacity="1" fill-opacity="0" stroke="#000000" stroke-width="1" stroke-opacity="0"></use></g></g><g><use xlink:href="#a3ayko0SI" opacity="1" fill="#ffffff" fill-opacity="1"></use><g><use xlink:href="#a3ayko0SI" opacity="1" fill-opacity="0" stroke="#000000" stroke-width="1" stroke-opacity="0"></use></g></g><g><use xlink:href="#c2BT6RSuei" opacity="1" fill="#ffffff" fill-opacity="1"></use><g><use xlink:href="#c2BT6RSuei" opacity="1" fill-opacity="0" stroke="#000000" stroke-width="1" stroke-opacity="0"></use></g></g><g><use xlink:href="#b1rfpNJpbn" opacity="1" fill="#ffffff" fill-opacity="1"></use><g><use xlink:href="#b1rfpNJpbn" opacity="1" fill-opacity="0" stroke="#000000" stroke-width="1" stroke-opacity="0"></use></g></g><g><use xlink:href="#dOhUnlX5h" opacity="1" fill="#ffffff" fill-opacity="1"></use><g><use xlink:href="#dOhUnlX5h" opacity="1" fill-opacity="0" stroke="#000000" stroke-width="1" stroke-opacity="0"></use></g></g><g><use xlink:href="#a8QyHodDr" opacity="1" fill="#ffffff" fill-opacity="1"></use><g><use xlink:href="#a8QyHodDr" opacity="1" fill-opacity="0" stroke="#000000" stroke-width="1" stroke-opacity="0"></use></g></g><g><use xlink:href="#bPeMW6cYD" opacity="1" fill="#ffffff" fill-opacity="1"></use><g><use xlink:href="#bPeMW6cYD" opacity="1" fill-opacity="0" stroke="#000000" stroke-width="1" stroke-opacity="0"></use></g></g><g><use xlink:href="#ePhsaW12H" opacity="1" fill="#ffffff" fill-opacity="1"></use><g><use xlink:href="#ePhsaW12H" opacity="1" fill-opacity="0" stroke="#000000" stroke-width="1" stroke-opacity="0"></use></g></g><g><use xlink:href="#e3ExQxva" opacity="1" fill="#ffffff" fill-opacity="1"></use><g><use xlink:href="#e3ExQxva" opacity="1" fill-opacity="0" stroke="#000000" stroke-width="1" stroke-opacity="0"></use></g></g><g><use xlink:href="#cs0me1NSU" opacity="1" fill="#ffffff" fill-opacity="1"></use><g><use xlink:href="#cs0me1NSU" opacity="1" fill-opacity="0" stroke="#000000" stroke-width="1" stroke-opacity="0"></use></g></g></g></g></svg>